<svg width="100%" height="100%" viewBox="0 0 115 41" version="1.1" xmlns="http://www.w3.org/2000/svg" xmlns:xlink="http://www.w3.org/1999/xlink" xml:space="preserve" xmlns:serif="http://www.serif.com/" style="fill-rule:evenodd;clip-rule:evenodd;stroke-linejoin:round;stroke-miterlimit:2;"><rect x="0" y="35.555" width="30.539" height="5.062" style="fill:#f2a711;"/><path d="M25.456,30.379l-0.004,-15.19c0,-2.794 -1.141,-5.326 -2.984,-7.158c-1.843,-1.833 -4.387,-2.969 -7.197,-2.969c-2.809,0 -5.354,1.136 -7.197,2.969c-1.843,1.833 -2.984,4.364 -2.984,7.158c0,2.794 1.141,5.326 2.984,7.158c1.843,1.833 4.388,2.967 7.197,2.967l0.004,0c2.811,0 5.09,2.268 5.09,5.065l-5.095,0c-8.428,0 -15.271,-6.806 -15.271,-15.19c0,-8.384 6.843,-15.19 15.271,-15.19c8.428,0 15.271,6.806 15.271,15.19l0,15.19l-5.086,0Z" style="fill:#fff;fill-rule:nonzero;"/><path d="M41.894,35.529l0,-15.494l3.209,0l0,12.66l8.477,0l0,2.833l-11.686,0Z" style="fill:#f2a711;fill-rule:nonzero;"/><path d="M59.245,35.728c-2.479,0 -4.205,-1.439 -4.205,-3.541c0,-2.191 1.771,-3.497 4.737,-3.497c0.952,0 1.904,0.155 2.811,0.443l0,-0.819c0,-1.328 -0.819,-2.014 -2.435,-2.014c-0.974,0 -2.058,0.31 -3.519,0.952l-1.107,-2.236c1.815,-0.841 3.475,-1.24 5.135,-1.24c3.121,0 4.914,1.549 4.914,4.272l0,7.481l-2.988,0l0,-0.797c-0.974,0.686 -2.014,0.996 -3.343,0.996Zm-1.306,-3.608c0,0.885 0.819,1.439 2.103,1.439c0.996,0 1.837,-0.244 2.546,-0.73l0,-1.726c-0.753,-0.288 -1.549,-0.421 -2.435,-0.421c-1.394,0 -2.213,0.553 -2.213,1.439Z" style="fill:#f2a711;fill-rule:nonzero;"/><path d="M80,29.774c0,3.32 -2.611,5.91 -5.954,5.91c-1.151,0 -2.258,-0.332 -3.187,-0.93l0,0.775l-2.988,0l0,-15.494l3.032,-0.664l0,5.533c0.907,-0.686 2.036,-1.062 3.231,-1.062c3.276,0 5.866,2.612 5.866,5.932Zm-6.352,-3.342c-1.106,0 -2.058,0.376 -2.744,1.085l0,4.537c0.664,0.664 1.66,1.062 2.744,1.062c1.904,0 3.364,-1.439 3.364,-3.342c0,-1.903 -1.483,-3.342 -3.364,-3.342Z" style="fill:#f2a711;fill-rule:nonzero;"/><path d="M80.882,34.157l1.504,-2.014c1.351,0.885 2.524,1.306 3.741,1.306c1.35,0 2.236,-0.487 2.236,-1.217c0,-0.598 -0.443,-0.93 -1.439,-1.085l-2.213,-0.332c-2.28,-0.354 -3.497,-1.483 -3.497,-3.342c0,-2.236 1.859,-3.652 4.803,-3.652c1.682,0 3.298,0.487 4.737,1.439l-1.461,1.948c-1.261,-0.753 -2.39,-1.107 -3.563,-1.107c-1.107,0 -1.815,0.443 -1.815,1.129c0,0.62 0.442,0.93 1.571,1.085l2.213,0.332c2.258,0.332 3.52,1.505 3.52,3.298c0,2.169 -2.147,3.807 -5.047,3.807c-2.103,0 -3.984,-0.553 -5.29,-1.594Z" style="fill:#f2a711;fill-rule:nonzero;"/><path d="M44.081,4.678l-0.876,0l-2.253,0.946l0,1.225l1.752,-0.738l0,8.308l1.377,0l0,-9.742Z" style="fill:#fff;fill-rule:nonzero;"/><path d="M44.984,14.42l1.516,0l1.14,-2.853l4.352,0l1.127,2.853l1.585,0l-3.977,-9.742l-1.71,0l-4.033,9.742Zm3.142,-4.064l1.697,-4.272l1.697,4.272l-3.393,0Z" style="fill:#fff;fill-rule:nonzero;"/><path d="M55.232,14.42l6.744,0l0,-1.183l-4.839,0l2.74,-2.533c1.501,-1.406 1.946,-2.171 1.946,-3.298c0,-1.67 -1.376,-2.853 -3.351,-2.853c-1.237,0 -2.392,0.473 -3.476,1.447l0.793,0.946c0.974,-0.863 1.71,-1.197 2.656,-1.197c1.168,0 2.03,0.724 2.03,1.74c0,0.779 -0.361,1.364 -1.488,2.435l-3.755,3.493l0,1.002Z" style="fill:#fff;fill-rule:nonzero;"/><path d="M70.083,11.734c0,-1.072 -0.764,-1.921 -1.946,-2.268c0.987,-0.459 1.585,-1.28 1.585,-2.268c0,-1.559 -1.404,-2.672 -3.351,-2.672c-1.349,0 -2.586,0.529 -3.546,1.489l0.932,0.891c0.862,-0.849 1.571,-1.169 2.586,-1.169c1.14,0 2.003,0.668 2.003,1.559c0,0.974 -0.848,1.698 -1.988,1.698l-0.737,0l0,1.127l0.848,0c1.335,0 2.211,0.626 2.211,1.545c0,1.002 -0.931,1.698 -2.294,1.698c-1.126,0 -1.919,-0.32 -2.74,-1.113l-0.932,0.877c0.932,0.932 2.239,1.433 3.685,1.433c2.141,0 3.685,-1.183 3.685,-2.825Z" style="fill:#fff;fill-rule:nonzero;"/><path d="M73.74,12.806c1.113,1.127 2.615,1.753 4.172,1.753c2.322,0 3.879,-1.197 3.879,-2.992c0,-1.517 -0.932,-2.366 -2.99,-2.7l-1.571,-0.251c-1.252,-0.209 -1.738,-0.584 -1.738,-1.378c0,-0.863 0.848,-1.447 2.113,-1.447c1.085,0 2.127,0.39 3.184,1.197l0.807,-1.113c-1.099,-0.849 -2.531,-1.322 -3.922,-1.322c-2.169,0 -3.587,1.099 -3.587,2.797c0,1.406 0.876,2.241 2.656,2.533l1.627,0.264c1.419,0.237 1.975,0.668 1.975,1.531c0,0.96 -0.959,1.628 -2.364,1.628c-1.21,0 -2.294,-0.501 -3.351,-1.531l-0.89,1.03Z" style="fill:#fff;fill-rule:nonzero;"/><path d="M83.613,12.666c0,1.225 0.737,1.879 2.113,1.879c0.417,0 0.946,-0.083 1.322,-0.209l0,-1.169c-0.348,0.125 -0.626,0.167 -1.016,0.167c-0.751,0 -1.043,-0.264 -1.043,-0.988l0,-3.841l2.086,0l0,-1.169l-2.086,0l0,-2.143l-1.377,0.334l0,1.809l-1.501,0l0,1.169l1.501,0l0,4.161Z" style="fill:#fff;fill-rule:nonzero;"/><path d="M89.468,7.336l-1.391,0l0,4.439c0,1.642 1.126,2.783 2.753,2.783c0.862,0 1.571,-0.292 2.127,-0.849l0,0.71l1.39,0l0,-7.084l-1.39,0l0,5.08c-0.389,0.598 -0.987,0.932 -1.738,0.932c-1.071,0 -1.752,-0.696 -1.752,-1.809l0,-4.203Z" style="fill:#fff;fill-rule:nonzero;"/><path d="M101.412,14.42l1.376,0l0,-10.048l-1.391,0.306l0,3.243c-0.612,-0.445 -1.349,-0.696 -2.127,-0.696c-2.03,0 -3.601,1.6 -3.601,3.646c0,2.06 1.571,3.66 3.573,3.66c0.82,0 1.572,-0.278 2.17,-0.779l0,0.668Zm-4.38,-3.563c0,-1.392 1.042,-2.435 2.405,-2.435c0.779,0 1.501,0.306 1.96,0.835l0,3.215c-0.472,0.543 -1.168,0.849 -1.96,0.849c-1.363,0 -2.405,-1.072 -2.405,-2.463Z" style="fill:#fff;fill-rule:nonzero;"/><path d="M105.125,6.195c0.472,0 0.862,-0.39 0.862,-0.863c0,-0.473 -0.39,-0.863 -0.862,-0.863c-0.473,0 -0.848,0.39 -0.848,0.863c0,0.473 0.376,0.863 0.848,0.863Zm0.695,1.141l-1.391,0l0,7.084l1.391,0l0,-7.084Z" style="fill:#fff;fill-rule:nonzero;"/><path d="M107.141,10.871c0,2.074 1.627,3.688 3.685,3.688c2.058,0 3.671,-1.614 3.671,-3.688c0,-2.06 -1.612,-3.674 -3.671,-3.674c-2.058,0 -3.685,1.614 -3.685,3.674Zm3.685,2.463c-1.307,0 -2.323,-1.085 -2.323,-2.463c0,-1.378 1.029,-2.449 2.323,-2.449c1.279,0 2.308,1.072 2.308,2.449c0,1.378 -1.029,2.463 -2.308,2.463Z" style="fill:#fff;fill-rule:nonzero;"/></svg>